<?xml version="1.0" encoding="UTF-8" standalone="no"?>
<svg width="28px" height="28px" viewBox="0 0 28 28" version="1.1" xmlns="http://www.w3.org/2000/svg" xmlns:xlink="http://www.w3.org/1999/xlink">
    <!-- Generator: Sketch 40.1 (33804) - http://www.bohemiancoding.com/sketch -->
    <title>Shape</title>
    <desc>Created with Sketch.</desc>
    <defs></defs>
    <g id="Page-1" stroke="none" stroke-width="1" fill="none" fill-rule="evenodd">
        <g id="facebook" fill="#00E08A">
            <g id="Page-1">
                <g id="DH-Home">
                    <g id="facebook">
                        <path d="M1.5453326,0 C0.691675337,0 0,0.691675337 0,1.5453326 L0,26.4546674 C0,27.3081148 0.691675337,28 1.5453326,28 L14.9556303,28 L14.9556303,17.1569687 L11.306736,17.1569687 L11.306736,12.9311711 L14.9556303,12.9311711 L14.9556303,9.8148029 C14.9556303,6.19822105 17.1645223,4.22894483 20.3907319,4.22894483 C21.9360645,4.22894483 23.2643372,4.34403174 23.6513522,4.3954379 L23.6513522,8.17494589 L21.4138197,8.17599493 C19.6591905,8.17599493 19.3194901,9.00971925 19.3194901,10.2331863 L19.3194901,12.9311711 L23.5040578,12.9311711 L22.9591523,17.1569687 L19.3194901,17.1569687 L19.3194901,28 L26.4546674,28 C27.3081148,28 28,27.3081148 28,26.4546674 L28,1.5453326 C28,0.691675337 27.3081148,0 26.4546674,0 L1.5453326,0 Z" id="Shape"></path>
                    </g>
                </g>
            </g>
        </g>
    </g>
</svg>