<?xml version="1.0" encoding="UTF-8" standalone="no"?>
<svg width="28px" height="28px" viewBox="0 0 28 28" version="1.1" xmlns="http://www.w3.org/2000/svg" xmlns:xlink="http://www.w3.org/1999/xlink">
    <!-- Generator: Sketch 40.1 (33804) - http://www.bohemiancoding.com/sketch -->
    <title>instagram</title>
    <desc>Created with Sketch.</desc>
    <defs>
        <polygon id="path-1" points="6.12691466e-05 27.9963239 27.9557637 27.9963239 27.9557637 0.0442363239 6.12691466e-05 0.0442363239"></polygon>
    </defs>
    <g id="Page-1" stroke="none" stroke-width="1" fill="none" fill-rule="evenodd">
        <g id="instagram">
            <g id="Page-1">
                <g id="DH-Home">
                    <g id="Instagram-icon-black">
                        <g id="Group-3">
                            <g id="Fill-1-Clipped">
                                <mask id="mask-2" fill="white">
                                    <use xlink:href="#path-1"></use>
                                </mask>
                                <g id="path-1"></g>
                                <path d="M13.9779431,0.0441137856 C10.1817681,0.0441137856 9.70576805,0.0601050328 8.21490591,0.128236324 C6.72704595,0.196183807 5.71095842,0.432437637 4.82194311,0.777934354 C3.9027221,1.13513348 3.12319475,1.61309409 2.34611816,2.39017068 C1.56904158,3.16724726 1.09108096,3.94683589 0.733943107,4.86599562 C0.388262582,5.75513348 0.152008753,6.77122101 0.0841838074,8.25901969 C0.0161137856,9.74988184 6.12691466e-05,10.2258206 6.12691466e-05,14.0219956 C6.12691466e-05,17.8182932 0.0161137856,18.2942319 0.0841838074,19.7850941 C0.152008753,21.2728928 0.388262582,22.2889803 0.733943107,23.1781182 C1.09108096,24.0972779 1.56904158,24.8768665 2.34611816,25.6539431 C3.12319475,26.4310197 3.9027221,26.9089803 4.82194311,27.2661794 C5.71095842,27.6116761 6.72704595,27.84793 8.21490591,27.9158775 C9.70576805,27.9838862 10.1817681,28 13.9779431,28 C17.7741182,28 18.2501794,27.9838862 19.7410416,27.9158775 C21.2288403,27.84793 22.2449278,27.6116761 23.1340044,27.2661794 C24.0532254,26.9089803 24.8326915,26.4310197 25.6097681,25.6539431 C26.3868446,24.8768665 26.8648053,24.0972779 27.2220044,23.1781182 C27.5676236,22.2889803 27.8038775,21.2728928 27.8717637,19.7850941 C27.9398337,18.2942319 27.9558249,17.8182932 27.9558249,14.0219956 C27.9558249,10.2258206 27.9398337,9.74988184 27.8717637,8.25901969 C27.8038775,6.77122101 27.5676236,5.75513348 27.2220044,4.86599562 C26.8648053,3.94683589 26.3868446,3.16724726 25.6097681,2.39017068 C24.8326915,1.61309409 24.0532254,1.13513348 23.1340044,0.777934354 C22.2449278,0.432437637 21.2288403,0.196183807 19.7410416,0.128236324 C18.2501794,0.0601050328 17.7741182,0.0441137856 13.9779431,0.0441137856 M13.9779431,2.56264333 C17.7102144,2.56264333 18.1522101,2.57685777 19.6262232,2.64407002 C20.9890328,2.70625821 21.7291641,2.93405689 22.2217068,3.12540044 C22.8742232,3.37899344 23.3398687,3.6819081 23.828919,4.17101969 C24.3181532,4.66019256 24.6210678,5.12577681 24.8745383,5.77823195 C25.0658818,6.27077462 25.2936805,7.01096718 25.3558687,8.37371554 C25.423081,9.84772867 25.4373567,10.2897243 25.4373567,14.0219956 C25.4373567,17.7543895 25.423081,18.1963851 25.3558687,19.6702757 C25.2936805,21.0331466 25.0658818,21.7733392 24.8745383,22.2658818 C24.6210678,22.9182757 24.3181532,23.3839212 23.828919,23.8730941 C23.3398687,24.3622057 22.8742232,24.6651204 22.2217068,24.9186521 C21.7291641,25.1100569 20.9890328,25.3378556 19.6262232,25.3999212 C18.1524551,25.467256 17.7105208,25.4814092 13.9779431,25.4814092 C10.2453654,25.4814092 9.80343107,25.467256 8.32966302,25.3999212 C6.96691466,25.3378556 6.2267221,25.1100569 5.73417943,24.9186521 C5.08172429,24.6651204 4.61607877,24.3622057 4.12696718,23.8730941 C3.63791685,23.3839212 3.33500219,22.9182757 3.08140919,22.2658818 C2.89000438,21.7733392 2.66226696,21.0331466 2.60001751,19.6702757 C2.53286652,18.1963851 2.51859081,17.7543895 2.51859081,14.0219956 C2.51859081,10.2897243 2.53286652,9.84772867 2.60001751,8.37371554 C2.66226696,7.01096718 2.89000438,6.27077462 3.08140919,5.77823195 C3.33500219,5.12577681 3.63791685,4.66019256 4.12696718,4.17101969 C4.61607877,3.6819081 5.08172429,3.37899344 5.73417943,3.12540044 C6.2267221,2.93405689 6.96691466,2.70625821 8.32966302,2.64407002 C9.80367615,2.57685777 10.2456718,2.56264333 13.9779431,2.56264333" id="Fill-1" fill="#00E08A" mask="url(#mask-2)"></path>
                            </g>
                        </g>
                        <path d="M13.9779431,18.6813304 C11.4047002,18.6813304 9.31860832,16.5952998 9.31860832,14.0219956 C9.31860832,11.4487527 11.4047002,9.3627221 13.9779431,9.3627221 C16.5512473,9.3627221 18.6372779,11.4487527 18.6372779,14.0219956 C18.6372779,16.5952998 16.5512473,18.6813304 13.9779431,18.6813304 M13.9779431,6.84419256 C10.0137681,6.84419256 6.80014004,10.0578818 6.80014004,14.0219956 C6.80014004,17.9862932 10.0137681,21.19986 13.9779431,21.19986 C17.9421182,21.19986 21.1557462,17.9862932 21.1557462,14.0219956 C21.1557462,10.0578818 17.9421182,6.84419256 13.9779431,6.84419256" id="Fill-4" fill="#00E08A"></path>
                        <path d="M23.1167877,6.56057768 C23.1167877,7.48690591 22.3658118,8.23794311 21.4394223,8.23794311 C20.5130941,8.23794311 19.7620569,7.48690591 19.7620569,6.56057768 C19.7620569,5.63418818 20.5130941,4.88321225 21.4394223,4.88321225 C22.3658118,4.88321225 23.1167877,5.63418818 23.1167877,6.56057768" id="Fill-5" fill="#00E08A"></path>
                    </g>
                </g>
            </g>
        </g>
    </g>
</svg>